# xmcd
#
# Track frame offsets: 
#        150
#        12413
#        24806
#        36715
#        49810
#        63049
#        73936
#        86252
#        98040
#        110407
#        121313
#        133801
#        146994
#        158755
#        171511
#        183163
#
# Disc length: 2588 seconds
#
# Revision: 2
# Processed by: cddbd v1.5.2PL0 Copyright (c) Steve Scherf et al.
# Submitted via: ExactAudioCopy v1.0b3
#
DISCID=de0a1a10
DTITLE=Williams, Hank - Jambalaya (On The Bayou)
DYEAR=2004
DGENRE=Country
TTITLE0=Your Cheatin' Heart
TTITLE1=Lovesick Blues
TTITLE2=Take These Chains From My Heart
TTITLE3=Jambalaya (On The Bayou)
TTITLE4=Hey, Good Lookin'
TTITLE5=I Can't Help It (If I'm Still In Love With You)
TTITLE6=Half As Much
TTITLE7=Kawa-Liga
TTITLE8=Cold, Cold Heart
TTITLE9=Why Don't You Love Me
TTITLE10=Move It On Over
TTITLE11=Wedding Bells
TTITLE12=Mansion On The Hill
TTITLE13=I Just Don't Like This Kind Of Livin'
TTITLE14=My Son Calls Another Man Daddy
TTITLE15=I'll Never Get Out Of This World Alive
EXTD=
EXTT0=
EXTT1=
EXTT2=
EXTT3=
EXTT4=
EXTT5=
EXTT6=
EXTT7=
EXTT8=
EXTT9=
EXTT10=
EXTT11=
EXTT12=
EXTT13=
EXTT14=
EXTT15=
PLAYORDER=
